<?xml version="1.0" encoding="UTF-8" standalone="no"?><!-- Generator: Gravit.io --><svg xmlns="http://www.w3.org/2000/svg" xmlns:xlink="http://www.w3.org/1999/xlink" style="isolation:isolate" viewBox="0 0 381.452 381.452" width="381.452pt" height="381.452pt"><defs><clipPath id="_clipPath_3flduRuxdqtf9gVjbCCTLeIHt1ltOk24"><rect width="381.452" height="381.452"/></clipPath></defs><g clip-path="url(#_clipPath_3flduRuxdqtf9gVjbCCTLeIHt1ltOk24)"><path d=" M 375.042 6.398 C 370.804 2.16 364.683 0.011 356.848 0.011 C 329.335 0.011 284.734 26.779 260.597 42.735 L 258.682 44.001 L 253.195 87.3 L 238.677 57.86 L 233.872 61.381 C 202.846 84.123 171.52 110.887 145.666 136.741 C 140.921 141.485 136.251 146.31 131.784 151.081 L 130.858 152.069 L 111.471 237.4 L 101.263 186.48 L 94.557 195.668 C 90.603 201.086 86.872 206.502 83.467 211.767 L 82.848 212.724 L 74.588 277.896 L 61.693 251.747 L 58.158 264.286 C 53.481 280.877 53.547 294.871 58.206 305.555 L 3.661 360.101 C -1.22 364.983 -1.22 372.897 3.661 377.779 C 6.102 380.219 9.301 381.44 12.5 381.44 C 15.699 381.44 18.898 380.219 21.339 377.779 L 75.861 323.257 C 81.205 325.592 87.392 326.775 94.379 326.775 C 94.38 326.775 94.38 326.775 94.381 326.775 C 101.269 326.775 108.931 325.599 117.153 323.282 L 129.693 319.748 L 103.542 306.852 L 168.714 298.592 L 169.67 297.973 C 174.924 294.577 180.34 290.845 185.77 286.883 L 194.959 280.178 L 144.039 269.969 L 229.371 250.581 L 230.36 249.655 C 235.142 245.176 239.967 240.506 244.7 235.773 C 280.877 199.596 316.811 155.137 343.288 113.795 L 357.779 89.713 L 357.858 89.577 C 381.75 46.873 387.532 18.887 375.042 6.398 Z " fill="rgb(51,51,51)"/></g></svg>