<?xml version="1.0" encoding="UTF-8" standalone="no"?><!-- Generator: Gravit.io --><svg xmlns="http://www.w3.org/2000/svg" xmlns:xlink="http://www.w3.org/1999/xlink" style="isolation:isolate" viewBox="0 0 2169 2500" width="2169pt" height="2500pt"><defs><clipPath id="_clipPath_BrqjsrUCtjGI5jnUjC5HYDV2BZnYEdHL"><rect width="2169" height="2500"/></clipPath></defs><g clip-path="url(#_clipPath_BrqjsrUCtjGI5jnUjC5HYDV2BZnYEdHL)"><path d=" M 1095.938 2.399 C 490.211 2.399 0 493.966 0 1101.371 C 0 1636.156 382.286 2080.505 886.791 2179.364 L 886.791 2493.954 C 1542.684 2394.798 2123.443 1872.704 2166.78 1187.36 C 2192.859 774.835 1987.753 353.701 1641.814 149.205 C 1622.005 137.504 1601.883 125.88 1581.159 115.653 C 1560.045 105.232 1538.363 95.082 1516.326 86.287 C 1509.327 83.356 1502.473 80.695 1495.407 77.899 C 1476.165 70.782 1456.746 62.759 1436.852 56.929 C 1329.605 21.488 1214.97 2.399 1095.938 2.399 Z " fill="rgb(51,51,51)"/><path d=" M 1322.971 408.468 C 1285.412 404.605 1245.853 417.712 1218.19 450.493 C 1198.067 477.402 1185.494 503.455 1172.082 530.356 C 1131.837 624.504 1145.257 725.38 1205.617 799.363 C 1299.502 779.181 1379.137 719.076 1419.382 624.928 C 1432.794 598.027 1440.335 563.56 1440.335 536.66 C 1444.529 465.21 1385.584 414.908 1322.971 408.468 Z  M 834.667 414.772 C 773.435 420.618 715.211 469.421 715.211 536.66 C 715.211 563.56 722.751 598.027 736.172 624.928 C 776.409 719.076 862.33 779.181 956.224 799.354 C 1009.873 725.388 1023.7 624.504 983.464 530.356 C 970.051 503.455 957.478 476.978 937.355 456.805 C 909.692 424.016 871.413 411.264 834.667 414.781 L 834.667 414.772 Z  M 505.648 738.419 C 399.892 743.859 352.657 877.117 440.68 946.474 C 467.504 966.639 493.49 981.356 520.323 994.81 C 614.2 1035.157 722.76 1021.287 803.242 967.486 C 783.119 880.065 714.804 799.787 620.91 759.431 C 587.375 745.985 560.136 738.419 526.609 738.419 C 519.06 737.572 512.697 738.055 505.648 738.419 Z  M 1538.846 1146.123 C 1477.419 1144.937 1415.196 1162.933 1364.903 1196.553 C 1385.017 1283.982 1453.34 1364.26 1547.234 1404.607 C 1580.76 1418.053 1608 1425.619 1641.535 1425.619 C 1762.253 1432.347 1821.35 1282.72 1727.464 1215.472 C 1700.632 1195.29 1674.646 1182.683 1647.821 1169.237 C 1612.618 1154.105 1575.702 1146.827 1538.846 1146.115 L 1538.846 1146.123 Z  M 623.003 1152.419 C 586.147 1153.13 549.24 1160.408 514.028 1175.54 C 480.493 1188.987 454.507 1203.704 434.385 1223.877 C 347.201 1297.843 405.891 1438.659 526.601 1431.923 C 560.136 1431.923 594.086 1424.365 620.91 1410.911 C 714.804 1370.564 781.442 1290.286 794.854 1202.856 C 744.055 1168.909 684.09 1151.309 623.003 1152.419 L 623.003 1152.419 Z  M 962.519 1358.372 C 868.625 1378.545 788.991 1438.65 748.754 1532.798 C 735.342 1559.699 727.793 1592.065 727.793 1618.965 C 721.091 1733.287 876.589 1794.654 943.659 1707.225 C 963.773 1680.324 976.347 1654.271 989.759 1627.37 C 1030.004 1539.949 1016.168 1439.074 962.519 1358.372 L 962.519 1358.372 Z  M 1211.912 1364.676 C 1158.254 1438.65 1144.427 1539.526 1184.664 1633.682 C 1198.076 1660.575 1210.649 1687.06 1230.772 1707.225 C 1304.543 1787.927 1459.618 1728.237 1452.925 1627.37 C 1452.925 1600.47 1445.376 1566.003 1431.964 1539.102 C 1391.719 1444.954 1305.806 1384.849 1211.912 1364.676 Z " fill="rgb(255,255,255)"/></g></svg>