<svg width="36" height="36" viewBox="0 0 36 36" fill="none" xmlns="http://www.w3.org/2000/svg">
<path d="M18 14.7893C16.2304 14.7893 14.7892 16.2304 14.7892 18C14.7892 19.7696 16.2304 21.2108 18 21.2108C19.7696 21.2108 21.2108 19.7696 21.2108 18C21.2108 16.2304 19.7696 14.7893 18 14.7893ZM9.01125 24.381L8.3025 24.2055C3.0285 22.869 0 20.6078 0 17.9944C0 15.381 3.02963 13.1198 8.3025 11.7833L9.01125 11.6078L9.21037 12.3109C9.74539 14.1525 10.4294 15.9476 11.2556 17.6783L11.4075 17.9944L11.2556 18.3161C10.4277 20.0461 9.74361 21.8413 9.21037 23.6835L9.01125 24.381ZM7.97513 13.4235C3.96675 14.5485 1.50637 16.2765 1.50637 17.9944C1.50637 19.7123 3.96788 21.4335 7.97513 22.5653C8.46636 21.0045 9.05938 19.4776 9.75037 17.9944C9.05841 16.5116 8.46537 14.9846 7.97513 13.4235ZM26.9888 24.381L26.7896 23.6779C26.2555 21.8377 25.5715 20.0445 24.7444 18.3161L24.5925 17.9944L24.7444 17.6726C25.5723 15.9427 26.2564 14.1475 26.7896 12.3053L26.9888 11.6078L27.6975 11.7833C32.9715 13.1198 36 15.381 36 17.9944C36 20.6078 32.9704 22.869 27.6975 24.2055L26.9888 24.381ZM26.2496 17.9944C26.9429 19.4766 27.536 21.0037 28.0249 22.5653C32.0389 21.4346 34.4936 19.7123 34.4936 17.9944C34.4936 16.2765 32.0321 14.5553 28.0249 13.4235C27.5325 14.9839 26.9395 16.5107 26.2496 17.9944ZM7.96275 13.4179L7.76363 12.7148C6.28088 7.48801 6.732 3.73838 9 2.43113C11.2264 1.14751 14.7949 2.66513 18.5389 6.50926L19.0485 7.03126L18.5389 7.55326C17.2093 8.93658 15.9944 10.4257 14.9062 12.006L14.7015 12.2929L14.3494 12.3221C12.4352 12.4732 10.5363 12.7791 8.6715 13.2368L7.96275 13.4179ZM10.8101 3.47513C10.4062 3.47513 10.0485 3.55726 9.74925 3.73276C8.26088 4.59451 7.99763 7.58251 9.0225 11.6134C10.6216 11.2557 12.2425 11.0031 13.8746 10.8574C14.8143 9.51907 15.8418 8.24464 16.9504 7.04251C14.6126 4.76326 12.3975 3.47401 10.8101 3.47401V3.47513ZM25.1955 34.0133C25.1899 34.0133 25.1899 34.0133 25.1955 34.0133C23.0569 34.0133 20.3085 32.4079 17.4611 29.4784L16.9515 28.9564L17.4611 28.4344C18.7907 27.0511 20.0056 25.5619 21.0938 23.9816L21.2929 23.6948L21.645 23.6599C23.5617 23.5139 25.4628 23.2079 27.3285 22.7453L28.0373 22.5698L28.2364 23.2729C29.7191 28.4996 29.268 32.2436 27 33.5498C26.4517 33.8649 25.8278 34.0248 25.1955 34.0121V34.0133ZM19.0485 28.9451C21.3862 31.2244 23.6014 32.5136 25.1887 32.5136H25.1944C25.5926 32.5136 25.9504 32.4259 26.2496 32.256C27.738 31.3943 28.008 28.4063 26.9764 24.3754C25.3776 24.7335 23.7566 24.9841 22.1243 25.1258C21.1846 26.4659 20.1571 27.7422 19.0485 28.9463V28.9451ZM28.0373 13.4179L27.3285 13.2368C25.4615 12.7806 23.5609 12.4748 21.645 12.3221L21.2929 12.2929L21.0938 12.006C20.0056 10.4257 18.7907 8.93658 17.4611 7.55326L16.9515 7.03126L17.4611 6.50926C21.2051 2.66513 24.7736 1.14751 27 2.43113C29.268 3.73726 29.7191 7.48801 28.2364 12.7148L28.0373 13.4179ZM22.1254 10.8574C23.7576 11.0027 25.3784 11.2553 26.9775 11.6134C28.0091 7.58251 27.7391 4.59338 26.2507 3.73276C24.768 2.87776 21.9791 4.18951 19.0496 7.04363C20.1552 8.24834 21.1826 9.52257 22.1254 10.8585V10.8574ZM10.8101 34.0133C10.1768 34.0245 9.55013 33.867 9 33.5509C6.732 32.2448 6.28088 28.4996 7.76363 23.274L7.96275 22.5709L8.6715 22.7464C10.4062 23.1863 12.3165 23.49 14.3494 23.661L14.7015 23.6959L14.9006 23.9828C15.9888 25.563 17.2037 27.0522 18.5333 28.4355L19.0429 28.9575L18.5333 29.4795C15.6915 32.409 12.9431 34.0144 10.8101 34.0144V34.0133ZM9.02362 24.3754C7.992 28.4063 8.262 31.3954 9.75037 32.256C11.2331 33.0998 14.0164 31.7993 16.9515 28.9451C15.8429 27.7411 14.8154 26.4648 13.8757 25.1246C12.2434 24.9835 10.6224 24.7328 9.02362 24.3743V24.3754ZM18 25.3181C16.7636 25.3181 15.498 25.2653 14.2267 25.1595L13.8746 25.1303L13.6699 24.8378C12.9518 23.806 12.2773 22.7446 11.6483 21.6563C11.0179 20.5679 10.4335 19.4535 9.89662 18.3161L9.74475 17.9944L9.89662 17.6726C10.9722 15.3983 12.2342 13.217 13.6699 11.151L13.8746 10.8585L14.2267 10.8293C16.7378 10.6178 19.2622 10.6178 21.7733 10.8293L22.1254 10.8585L22.3301 11.151C23.7676 13.2158 25.0298 15.3973 26.1034 17.6726L26.2552 17.9944L26.1034 18.3161C25.0319 20.5926 23.7697 22.7743 22.3301 24.8378L22.1254 25.1303L21.7733 25.1595C20.5182 25.2645 19.2594 25.3174 18 25.3181ZM14.7071 23.6891C16.9223 23.859 19.0777 23.859 21.2985 23.6891C22.537 21.8755 23.6377 19.9716 24.5914 17.9933C23.6418 16.0117 22.5389 14.1073 21.2929 12.2974C19.1009 12.1275 16.8991 12.1275 14.7071 12.2974C13.4602 14.1067 12.3573 16.0112 11.4086 17.9933C12.3625 19.9725 13.4652 21.8766 14.7071 23.6891Z" fill="#333333"/>
</svg>
